<svg width="640" height="400" xmlns="http://www.w3.org/2000/svg">
  <path d="
M 202,104,202,110,203,124,204,126,205,136,207,140,208,146,210,150,225,164,233,174,237,182,239,190,245,202,254,210,263,216,275,222,291,228,322,218,339,210,355,202,
M 203,108,206,114,207,118,214,126,222,128,222,122,221,120,221,108,222,98,224,92,227,80,224,92,228,102,234,114,241,122,244,122,237,106,235,86,236,80,237,72,240,64,237,72,236,80,246,98,257,110,268,116,282,118,297,116,298,114,297,112,291,108,284,100,276,84,276,74,278,76,282,84,291,94,304,102,316,104,338,108,339,110,349,112,362,120,369,126,376,134,369,126,368,138,370,152,374,162,377,170,
M 236,180,228,182,216,180,205,174,191,162,179,148,170,134,165,124,164,108,163,98,164,84,166,78,176,58,185,44,198,32,214,26,227,28,233,32,235,32,243,26,254,18,265,14,279,12,302,14,333,26,350,36,367,48,373,56,380,68,379,84,383,92,389,96,390,100,393,102,394,122,385,128,378,140,377,170,
M 199,170,194,178,181,184,140,200,120,210,105,222,90,236,84,244,77,258,74,268,72,286,76,298,85,310,89,312,89,308,87,302,86,290,89,278,99,264,117,250,121,248,122,250,108,264,100,276,93,290,91,312,92,326,101,346,112,360,122,368,131,370,131,368,125,362,121,352,120,344,125,322,127,318,129,318,129,324,127,338,129,354,131,362,139,374,152,384,169,390,
M 227,28,239,22,254,18,
M 288,10,300,8,313,6,324,6,358,8,381,14,400,24,408,30,421,44,435,64,448,90,457,112,466,142,472,166,475,192,477,214,476,234,473,252,469,262,
M 298,228,299,246,298,260,295,266,286,268,272,270,268,270,242,276,225,286,211,298,202,310,189,334,179,358,171,382,167,398,
M 377,170,376,176,376,176,375,198,376,200,376,206,377,220,380,232,383,240,388,246,418,252,425,252,452,256,462,260,475,268,484,278,494,292,505,312,511,328,520,344,530,364,540,380,547,398,
M 472,398,470,392,459,374,451,360,442,346,430,330,429,332,429,342,428,356,424,370,417,384,407,398,
M 256,272,248,288,236,308,227,314,215,328,202,340,195,354,195,360,198,372,206,386,215,398,
M 268,270,263,282,254,298,250,312,237,308,250,312,263,316,284,320,314,312,340,302,357,300,379,306,381,312,378,324,373,322,366,334,359,352,358,358,360,372,366,386,375,400,352,400,344,382,340,370,338,358,340,346,343,334,355,318,373,322,355,318,310,328,275,338,272,338,250,330,229,324,216,326,
M 401,250,393,260,384,276,377,272,373,278,375,296,379,306,383,306,384,298,388,290,390,300,388,290,384,298,383,306,391,306,389,312,381,312,378,324,377,346,392,350,395,334,390,336,385,330,381,312,385,312,391,330,394,334,398,334,401,348,415,346,410,340,409,336,416,338,428,352,429,348,420,334,414,326,407,332,409,336,407,332,398,334,407,332,414,326,422,320,422,316,399,304,391,308,399,304,404,298,406,282,385,276,403,282,406,268,411,252,
M 393,318,397,326,400,320,400,316,398,312,
M 339,28,356,22,360,26,362,30,362,32,357,30,353,28,357,30,362,32,363,40,357,36,349,30,357,36,363,40,365,46,
M 380,68,382,60,386,54,393,56,398,60,418,56,419,58,415,80,408,92,396,98,395,96,396,84,399,82,404,88,399,82,396,84,395,96,389,96,390,100,393,102,402,126,396,128,399,128,407,142,421,136,418,130,417,122,405,128,402,126,405,128,417,122,427,116,416,106,407,100,410,96,408,92,410,96,407,100,400,102,403,110,408,112,410,110,408,112,403,110,400,102,393,102,
M 383,68,384,84,388,92,
M 387,132,390,136,386,148,383,142,381,144,383,142,386,148,382,154,378,156,378,166,384,164,391,154,395,144,396,128,394,120,
M 229,46,220,42,210,40,198,44,184,58,178,68,179,72,185,64,187,64,182,84,178,80,175,92,174,106,179,130,187,146,199,160,218,172,215,166,202,152,198,142,190,122,184,100,185,94,193,110,194,108,193,74,199,64,206,52,220,44,
M 379,80,368,64,359,58,345,40,344,44,345,52,342,52,336,44,330,40,304,26,284,22,266,26,255,34,250,40,247,46,250,40,260,40,289,50,324,74,339,88,343,88,343,86,333,68,327,60,329,58,343,70,355,82,370,96,383,112,387,126,
M 210,178,205,186,188,194,160,202,159,202,163,208,157,214,142,222,138,220,139,210,128,216,114,228,95,252,82,274,80,282,83,284,89,270,103,250,129,240,143,238,156,230,156,234,138,256,122,274,117,282,115,280,120,266,117,262,104,284,99,300,98,312,100,328,108,344,112,346,115,320,123,304,139,290,159,280,167,272,167,278,152,290,142,302,137,312,137,316,140,318,139,324,142,328,143,334,149,332,154,352,150,354,142,350,135,344,132,348,142,364,152,374,170,386,
M 307,14,347,16,360,20,380,34,389,46,392,46,389,36,391,34,405,44,415,54,418,56,424,64,433,82,440,104,448,128,455,162,456,186,453,192,450,180,446,186,445,200,439,192,437,210,428,204,422,228,426,238,435,232,440,240,455,224,456,242,453,254,
M 320,20,330,20,341,24,
M 364,38,375,48,382,60,
M 220,138,220,136,222,132,223,132,224,130,234,130,235,132,239,132,240,134,245,134,246,136,254,140,
M 224,146,223,144,223,138,224,136,226,136,227,134,233,134,234,136,239,136,240,138,244,138,245,140,256,144,257,146,260,148,
M 247,172,250,174,257,176,264,174,265,172,266,172,
M 250,144,247,144,246,146,246,146,246,150,247,152,247,154,251,162,258,168,262,168,264,164,264,158,260,150,
M 251,146,251,148,250,150,248,150,250,150,251,152,251,154,254,160,257,162,259,162,260,160,260,158,256,150,253,148,251,148,
M 306,120,310,112,313,110,316,108,328,108,329,110,334,110,335,112,338,112,339,114,344,116,345,118,
M 307,130,309,120,310,118,311,118,313,114,318,112,329,112,330,114,335,114,336,116,342,118,343,120,352,128,
M 321,156,332,158,337,158,338,156,342,156,343,154,345,154,350,150,
M 339,118,337,118,336,120,335,120,334,122,333,132,334,134,334,136,336,140,338,144,340,144,341,146,345,146,346,144,348,144,349,142,350,136,349,130,347,126,
M 338,120,339,122,339,124,337,128,335,128,338,128,338,132,342,140,344,140,345,138,345,136,344,130,343,128,342,126,340,126,
M 273,172,271,172,270,174,269,174,268,176,270,180,273,182,276,188,
M 280,198,283,200,
M 288,200,291,198,294,196,295,196,298,194,
M 287,206,292,206,
M 221,120,224,120,225,118,234,122,
M 308,104,311,98,320,100,
M 215,136,220,140,
M 216,142,221,144,
M 217,146,220,148,223,148,
M 349,116,348,122,
M 353,118,349,124,
M 355,122,350,126,
M 233,302,234,308,
M 260,294,267,294,268,296,282,296,
M 341,288,359,284,370,280,
M 293,310,290,318,
M 220,146,224,146,
M 220,142,223,142,222,138,221,138,221,136,223,136,222,134,226,134,224,132,234,132,234,134,235,134,239,134,240,136,243,136,244,138,245,138,249,138,248,140,254,140,
M 307,126,307,120,308,122,308,118,309,118,309,116,311,116,310,114,312,114,312,112,315,112,315,110,328,110,330,112,334,112,337,114,338,114,340,116,346,120,
M 222,108,233,114,
M 238,106,255,116,268,118,
M 299,116,306,120,
M 349,154,362,164,363,178,355,202,344,228,350,246,370,260,389,266,
M 391,266,405,268,
M 407,268,434,266,454,260,
M 423,320,425,318,430,308,444,314,459,340,488,398,
M 373,274,367,278,
M 365,284,373,302,
M 194,360,182,398,
M 374,306,373,320,
M 224,148,229,158,246,172,
M 265,160,267,164,267,170,
M 307,132,308,140,314,150,320,156,
M 353,130,353,142,351,148,
M 270,178,279,178,278,180,277,186,
M 224,148,229,158,246,172,
M 265,160,267,164,267,170,
M 307,132,308,140,314,150,320,156,


  	" stroke="black" fill="transparent"/>
</svg>